<?xml version="1.0"?>
<svg xmlns="http://www.w3.org/2000/svg" width="570" height="350" xmlns:v="https://vecta.io/nano" viewBox="0 0 570 350"><g fill="none" stroke-width="3.543"><path d="M66.214 295.275c10.587 0 35.433-318.898 106.299-141.732s106.299-248.031 177.165-35.433 106.299-70.866 177.165 70.866" stroke="#c1c1c1"></path><g stroke="#000"><path d="M30.781 295.275h523.573m-13.754 8.858l17.717-8.858-17.717-8.858"></path><path d="M66.214 330.708V19.733m8.859 13.755l-8.858-17.717-8.858 17.717"></path><path d="M66.214 259.842h460.63m-460.63-35.433h460.63m-460.63-35.433h460.63m-460.63-35.434h460.63m-460.63-35.433h460.63M66.214 82.676h460.63M66.214 47.243h460.63" stroke-dasharray="7.0866142"></path></g></g><text y="330.708" x="526.844" font-size="42.52" fill="#000" font-family="Liberation Sans,sans-serif">t</text><path d="M66.214 295.275h6.201v-35.433h6.644v-35.433h6.324v-35.433h8.143v-35.433h10.648v-35.433h25.055V82.676h5.011v35.433h30.692v35.433h15.66v35.433h56.374v-35.433h18.791v-35.433h16.412V82.676h22.589V47.243h28.789v35.433h19.488v35.433h12.942v35.433h16.291v35.433h75.295v-35.433h69.537v35.433h9.744" fill="none" stroke="red" stroke-width="3.543"></path><text x="5.606" y="78.17" font-size="42.52" fill="#000" font-family="Liberation Sans,sans-serif">f(t)</text></svg>