<?xml version="1.0"?>
 <svg id="plane" class="svgWithText" width="700" height="190" style="padding-top: 20px; margin-left: 20px;" xmlns="http://www.w3.org/2000/svg" viewBox="0 0 700 190"> <g class="x axis" transform="translate(0,142.5)" style="opacity: 0.6;"> <g class="tick" style="opacity: 1;" transform="translate(40,0)"> <line y2="1" x2="0"></line> <text y="4" x="0" dy=".71em" style="text-anchor: middle; white-space: pre;">0</text> </g> <g class="tick" style="opacity: 1;" transform="translate(90.83333333333333,0)"> <line y2="1" x2="0"></line> <text y="4" x="0" dy=".71em" style="text-anchor: middle; white-space: pre;">10</text> </g> <g class="tick" style="opacity: 1;" transform="translate(141.66666666666666,0)"> <line y2="1" x2="0"></line> <text y="4" x="0" dy=".71em" style="text-anchor: middle; white-space: pre;">20</text> </g> <g class="tick" style="opacity: 1;" transform="translate(192.5,0)"> <line y2="1" x2="0"></line> <text y="4" x="0" dy=".71em" style="text-anchor: middle; white-space: pre;">30</text> </g> <g class="tick" style="opacity: 1;" transform="translate(243.33333333333331,0)"> <line y2="1" x2="0"></line> <text y="4" x="0" dy=".71em" style="text-anchor: middle; white-space: pre;">40</text> </g> <g class="tick" style="opacity: 1;" transform="translate(294.1666666666667,0)"> <line y2="1" x2="0"></line> <text y="4" x="0" dy=".71em" style="text-anchor: middle; white-space: pre;">50</text> </g> <g class="tick" style="opacity: 1;" transform="translate(345,0)"> <line y2="1" x2="0"></line> <text y="4" x="0" dy=".71em" style="text-anchor: middle; white-space: pre;">60</text> </g> <g class="tick" style="opacity: 1;" transform="translate(395.83333333333337,0)"> <line y2="1" x2="0"></line> <text y="4" x="0" dy=".71em" style="text-anchor: middle; white-space: pre;">70</text> </g> <g class="tick" style="opacity: 1;" transform="translate(446.66666666666663,0)"> <line y2="1" x2="0"></line> <text y="4" x="0" dy=".71em" style="text-anchor: middle; white-space: pre;">80</text> </g> <g class="tick" style="opacity: 1;" transform="translate(497.5,0)"> <line y2="1" x2="0"></line> <text y="4" x="0" dy=".71em" style="text-anchor: middle; white-space: pre;">90</text> </g> <g class="tick" style="opacity: 1;" transform="translate(548.3333333333334,0)"> <line y2="1" x2="0"></line> <text y="4" x="0" dy=".71em" style="text-anchor: middle; white-space: pre;">100</text> </g> <g class="tick" style="opacity: 1;" transform="translate(599.1666666666666,0)"> <line y2="1" x2="0"></line> <text y="4" x="0" dy=".71em" style="text-anchor: middle; white-space: pre;">110</text> </g> <g class="tick" style="opacity: 1;" transform="translate(650,0)"> <line y2="1" x2="0"></line> <text y="4" x="0" dy=".71em" style="text-anchor: middle; white-space: pre;">120</text> </g> <path class="domain" d="M40,1V0H650V1"></path> </g> <g class="y axis" transform="translate(40,0)" style="opacity: 0.6;"> <g class="tick" style="opacity: 1;" transform="translate(0,103.57142857142858)"> <line x2="-1" y2="0"></line> <text x="-4" y="0" dy=".32em" style="text-anchor: end; white-space: pre;">10,000</text> </g> <g class="tick" style="opacity: 1;" transform="translate(0,64.14285714285715)"> <line x2="-1" y2="0"></line> <text x="-4" y="0" dy=".32em" style="text-anchor: end; white-space: pre;">20,000</text> </g> <g class="tick" style="opacity: 1;" transform="translate(0,24.714285714285722)"> <line x2="-1" y2="0"></line> <text x="-4" y="0" dy=".32em" style="text-anchor: end; white-space: pre;">30,000</text> </g> <path class="domain" d="M-1,5H0V143H-1"></path> </g> <path d="M40,143Q80.66666666666666,125.25714285714285,90.83333333333333,119.34285714285714C106.08333333333333,110.47142857142858,126.41666666666666,92.13714285714286,141.66666666666666,83.85714285714286S177.25,75.97142857142859,192.5,64.14285714285715S228.08333333333331,12.09714285714286,243.33333333333331,5S278.9166666666667,14.46285714285715,294.1666666666667,16.828571428571436S333.5625,18.405714285714286,345,20.771428571428572S362.79166666666663,32.60000000000001,370.41666666666663,32.60000000000001S384.39583333333337,20.771428571428572,395.83333333333337,20.771428571428572S431.41666666666663,21.362857142857152,446.66666666666663,32.60000000000001S482.25,81.19571428571429,497.5,95.68571428571428S533.0833333333334,122.81257142857142,548.3333333333334,129.2S583.9166666666666,136.19857142857143,599.1666666666666,138.26857142857142Q609.3333333333333,139.64857142857142,650,143" stroke="steelblue" stroke-width="2.5" fill="none"></path> <path d="M40,143Q80.66666666666666,125.25714285714285,90.83333333333333,119.34285714285714C106.08333333333333,110.47142857142858,126.41666666666666,92.13714285714286,141.66666666666666,83.85714285714286S177.25,75.97142857142859,192.5,64.14285714285715S228.08333333333331,12.09714285714286,243.33333333333331,5S278.9166666666667,14.46285714285715,294.1666666666667,16.828571428571436S333.5625,18.405714285714286,345,20.771428571428572S362.79166666666663,32.60000000000001,370.41666666666663,32.60000000000001S384.39583333333337,20.771428571428572,395.83333333333337,20.771428571428572S431.41666666666663,21.362857142857152,446.66666666666663,32.60000000000001S482.25,81.19571428571429,497.5,95.68571428571428S533.0833333333334,122.81257142857142,548.3333333333334,129.2S583.9166666666666,136.19857142857143,599.1666666666666,138.26857142857142Q609.3333333333333,139.64857142857142,650,143" stroke="grey" stroke-width="2" fill="none" opacity="0.25"></path> <text text-anchor="end" x="110" y="10" style="opacity: 0.75; white-space: pre;">Altitude (feet)</text> <text text-anchor="middle" x="350" y="175" style="opacity: 0.75; white-space: pre;">Time (minutes)</text> </svg>